<svg width="1168" height="704" viewBox="0 0 1168 704" fill="none" xmlns="http://www.w3.org/2000/svg">
<path d="M733.408 479H630.618L627.669 383.139L623 357.808L626.935 3.11833L738 0L733.408 479Z" fill="#00A092"/>
<path d="M331.303 191.924L271.433 355.171C258.456 391.321 236.99 409.396 207.038 409.396C174.84 409.396 153.378 388.498 153.378 357.429C153.378 339.355 160.717 323.538 174.275 313.367H197.431L130.212 191.924H170.333L234.155 313.367H251.675L293.46 191.924H331.303ZM237.542 353.497L242.058 340.493H192.35C188.34 345.007 186.13 350.837 186.14 356.875C186.14 370.998 194.608 379.466 208.167 379.466C222.29 379.427 230.758 370.988 237.542 353.478V353.497Z" fill="black"/>
<path d="M342.613 299.253C342.613 234.293 384.982 189.101 445.981 189.101C508.683 189.101 549.359 232.599 549.359 299.253C549.359 364.204 506.99 409.396 445.981 409.396C383.844 409.396 342.613 365.897 342.613 299.253ZM512.635 299.253C512.635 251.239 486.092 220.734 445.981 220.734C405.315 220.734 379.337 251.239 379.337 299.253C379.337 347.268 405.315 377.762 445.981 377.762C486.083 377.762 512.625 347.307 512.625 299.253H512.635Z" fill="black"/>
<path d="M590.025 321.844V191.924H625.61V321.28C625.61 356.32 646.507 377.733 680.399 377.733C714.29 377.733 734.623 356.271 734.623 321.28V191.924H770.773V321.844C770.773 375.504 735.733 409.396 680.399 409.396C625.065 409.396 590.025 375.533 590.025 321.844Z" fill="black"/>
<path d="M1008.59 373.811V406.573H990.512C968.486 406.573 954.927 393.579 954.927 369.859V323.538H867.941V406.573H832.355V191.924H922.165C968.486 191.924 997.287 215.654 997.287 253.497C997.287 277.782 983.164 295.856 961.137 304.899H990.512V363.075C990.468 364.493 990.714 365.905 991.237 367.224C991.759 368.543 992.546 369.742 993.549 370.745C994.552 371.748 995.75 372.535 997.07 373.057C998.389 373.58 999.801 373.826 1001.22 373.781L1008.59 373.811ZM867.941 222.944V293.55H917.649C947.014 293.55 962.266 282.249 962.266 257.965C962.266 234.244 947.014 222.925 917.649 222.925L867.941 222.944Z" fill="black"/>
<path d="M319.574 608.316H296.458V491.603L252.502 608.316H226.358L182.013 491.224V608.316H158.906V464.321H195.64L239.596 580.274L283.24 464.321H319.613L319.574 608.316Z" fill="black"/>
<path d="M450.654 574.969H381.722L368.894 608.316H343.879L401.86 464.321H431.06L489.042 608.316H463.579L450.654 574.969ZM442.322 553.751L416.168 486.299L390.025 553.751H442.322Z" fill="black"/>
<path d="M495.427 589.375L509.433 571.173C521.793 582.927 538.22 589.446 555.277 589.365C574.607 589.365 586.735 581.783 586.735 569.275C586.735 558.286 578.394 554.12 554.148 547.297C526.895 539.345 500.712 531.004 500.712 503.342C500.712 477.957 522.31 462.462 555.277 462.462C575.367 462.462 592.419 468.146 607.195 479.505L593.928 497.667C582.601 488.428 568.385 483.467 553.768 483.651C535.956 483.651 524.568 490.844 524.568 502.213C524.568 512.822 534.418 518.127 558.635 524.599C591.222 532.941 610.922 543.17 610.922 567.046C610.922 593.57 588.945 610.243 553.33 610.243C530.652 610.214 510.192 603.011 495.427 589.375Z" fill="black"/>
<path d="M872.837 586.747V608.345H771.61V464.321H870.89V485.919H795.534V523.811H853.886V545.039H795.534V586.747H872.837Z" fill="black"/>
<path d="M1020.24 586.338V608.316H1008.12C993.335 608.316 984.244 599.604 984.244 583.69V552.612H925.844V608.316H902.017V464.321H962.266C993.335 464.321 1012.67 480.235 1012.67 505.629C1012.67 521.923 1003.2 534.05 988.41 540.105H1008.12V579.135C1008.09 580.089 1008.25 581.04 1008.6 581.929C1008.95 582.817 1009.48 583.625 1010.15 584.3C1010.83 584.976 1011.63 585.505 1012.52 585.856C1013.41 586.206 1014.36 586.371 1015.31 586.338H1020.24ZM925.893 485.111V532.532H959.23C978.94 532.532 989.169 524.95 989.169 508.656C989.169 492.742 978.94 485.16 959.23 485.16L925.893 485.111Z" fill="black"/>
<path d="M748.766 501.989C748.93 504.631 748.282 507.26 746.907 509.522C745.532 511.784 743.497 513.571 741.077 514.642C729.397 520.482 718.174 526.186 706.299 532.162L705.326 532.678C702.348 534.187 699.554 535.598 696.255 537.379L696.079 537.467C694.026 538.537 691.982 539.618 689.918 540.679C689.811 540.679 689.772 540.766 689.772 540.776C689.694 541.001 689.661 541.239 689.675 541.477C689.675 542.236 689.675 543.015 689.675 543.793V544.085C689.675 544.806 689.675 545.594 689.675 546.431C691.183 546.431 692.731 546.431 694.464 546.431H702.085L701.647 551.123C701.449 553.037 700.75 554.866 699.618 556.423C698.487 557.98 696.963 559.211 695.203 559.99C695.301 564.902 695.392 569.811 695.476 574.716L695.573 579.797C695.748 589.044 695.93 598.287 696.118 607.527C696.558 608.197 696.886 608.933 697.092 609.708L697.169 609.98C697.706 611.751 697.894 613.608 697.724 615.45C697.169 619.061 693.043 620.317 691.135 620.317C688.818 620.375 686.375 620.405 683.883 620.405C681.392 620.405 678.958 620.404 676.613 620.317C674.773 620.317 670.558 618.993 670.072 615.382C669.916 613.578 670.121 611.762 670.675 610.038L670.743 609.727C670.966 608.959 671.293 608.225 671.717 607.547C671.882 599.838 672.028 592.09 672.165 584.372V583.973C672.301 575.952 672.456 567.981 672.622 560.009C668.466 558.14 666.227 555.055 665.974 550.84L665.702 546.305H678.121C678.121 545.691 678.121 545.107 678.053 544.553C677.411 537 680.632 531.695 687.884 528.317C693.257 525.796 698.688 522.984 703.924 520.268L704.898 519.772C707.253 518.545 709.628 517.299 712.013 516.073L715.984 514.048L718.485 512.764C724.325 509.766 729.961 506.855 735.48 504.111C736.794 503.458 736.969 503.059 736.94 501.823C736.891 499.955 736.881 498.047 736.881 496.266C735.344 499.059 732.394 500.47 728.063 500.47H636.248C629.435 500.47 626.087 497.171 626.077 490.387V484.547C626.077 478.791 626.077 473.035 626.077 467.28C626.077 461.002 629.552 457.546 635.879 457.546C666.636 457.546 697.393 457.546 728.151 457.546C734.662 457.546 738.098 460.953 738.098 467.406C738.098 468.672 738.098 469.947 738.098 471.222C738.993 471.865 739.672 472.764 740.045 473.801C746.391 476.264 748.678 480.06 748.678 487.71C748.678 489.17 748.678 490.63 748.678 492.09V493.112C748.737 496.042 748.717 499.04 748.766 501.989Z" fill="black"/>
</svg>
